<svg xmlns="http://www.w3.org/2000/svg" viewBox="0 0 888.92 218.6"><defs><style>.a{fill:#1e64ab;}.b{fill:#1e63ac;}.c{fill:#56b62b;}</style></defs><path class="a" d="M205.73,459.63" transform="translate(-64.42 -390.7)"/><path class="b" d="M472.82,459.73H420.17a9.67,9.67,0,0,0-9.64,9.64V522a9.67,9.67,0,0,0,9.64,9.64h52.64a9.66,9.66,0,0,0,9.63-9.65V469.35A9.62,9.62,0,0,0,472.82,459.73Zm-4.56,59.45H425.67A2.69,2.69,0,0,1,423,516.5V473.92a2.68,2.68,0,0,1,2.69-2.68h42.57a2.68,2.68,0,0,1,2.68,2.68V516.5A2.67,2.67,0,0,1,468.26,519.18Z" transform="translate(-64.42 -390.7)"/><path class="b" d="M809.34,459.73H756.68a9.62,9.62,0,0,0-9.62,9.62V522a9.64,9.64,0,0,0,9.62,9.65h52.63A9.68,9.68,0,0,0,819,522V469.35A9.62,9.62,0,0,0,809.34,459.73Zm-5.53,59.45H761.23a2.68,2.68,0,0,1-2.67-2.68V473.92a2.68,2.68,0,0,1,2.68-2.68h42.57a2.7,2.7,0,0,1,2.69,2.69v42.56A2.69,2.69,0,0,1,803.81,519.18Z" transform="translate(-64.42 -390.7)"/><path class="b" d="M338.62,473.4v13.92a2.14,2.14,0,0,0,2.15,2.13h47.79a9.52,9.52,0,0,1,9.51,9.49v22.24a9.5,9.5,0,0,1-9.5,9.5H331.88a4.76,4.76,0,0,1-4.76-4.76v-2a4.76,4.76,0,0,1,4.76-4.76h52.53a2.15,2.15,0,0,0,2.15-2.15V503.12A2.16,2.16,0,0,0,384.4,501H336.72a9.6,9.6,0,0,1-9.6-9.61v-22a9.6,9.6,0,0,1,9.6-9.61h56.6a4.75,4.75,0,0,1,4.75,4.75v2a4.77,4.77,0,0,1-4.75,4.75H340.79A2.17,2.17,0,0,0,338.62,473.4Z" transform="translate(-64.42 -390.7)"/><path class="b" d="M640.64,459.73H588.88a9.61,9.61,0,0,0-9.61,9.61V526.9a3.79,3.79,0,0,0,3.78,3.78h4a3.77,3.77,0,0,0,3.77-3.77V501h49.86a9.58,9.58,0,0,0,9.58-9.58V469.31A9.58,9.58,0,0,0,640.64,459.73Zm-1.92,27.91a1.82,1.82,0,0,1-1.83,1.81h-44.3a1.81,1.81,0,0,1-1.81-1.81V473.05a1.81,1.81,0,0,1,1.81-1.81h44.3a1.82,1.82,0,0,1,1.83,1.81Z" transform="translate(-64.42 -390.7)"/><path class="b" d="M734.59,480.66v-4.39a16.54,16.54,0,0,0-16.54-16.54H667.18a4.5,4.5,0,0,0-4.49,4.5v62.9a4.52,4.52,0,0,0,4.5,4.51H718A16.64,16.64,0,0,0,734.59,515v-4.33a19.33,19.33,0,0,0-6.9-14.51A20.8,20.8,0,0,0,734.59,480.66Zm-59.82-9.42h42.52a4.86,4.86,0,0,1,4.84,4.84v8.25a5.12,5.12,0,0,1-5.09,5.12H674.78a.59.59,0,0,1-.59-.59V471.81A.57.57,0,0,1,674.77,471.24Zm42.52,47.94H674.78a.59.59,0,0,1-.59-.6v-17a.6.6,0,0,1,.59-.59H715.6a6.53,6.53,0,0,1,6.53,6.53v6.86A4.85,4.85,0,0,1,717.29,519.18Z" transform="translate(-64.42 -390.7)"/><path class="b" d="M559.07,459.73H502.64a7.76,7.76,0,0,0-7.74,7.74v60.16a3.06,3.06,0,0,0,3.05,3h4.69a3.77,3.77,0,0,0,3.77-3.77V501.32a.36.36,0,0,1,.36-.36H554a.36.36,0,0,1,.36.36v25.59a3.76,3.76,0,0,0,3.74,3.77h5.69a3,3,0,0,0,3-3V467.47A7.75,7.75,0,0,0,559.07,459.73ZM554,489.45H506.77a.36.36,0,0,1-.36-.36V471.6a.36.36,0,0,1,.36-.36H554a.36.36,0,0,1,.36.36v17.49A.36.36,0,0,1,554,489.45Z" transform="translate(-64.42 -390.7)"/><path class="c" d="M862.3,485.07l-9,9-17.63-18.15a12.65,12.65,0,0,1-3.53-7.53,10.39,10.39,0,0,1,2.8-8.35l1.51-1.52Z" transform="translate(-64.42 -390.7)"/><path class="b" d="M901.42,527,900,528.39a9.93,9.93,0,0,1-7.17,3c-.35,0-.69,0-1-.05a12.34,12.34,0,0,1-7.39-3.66L865.8,507l-20.13,20.66a11.92,11.92,0,0,1-8.44,3.7,9.8,9.8,0,0,1-7.14-3l-1.43-1.46.65-.67,66.24-68,1.5,1.53c4.06,4.18,3.73,11.31-.73,15.87l-21.63,22.19Z" transform="translate(-64.42 -390.7)"/><path class="b" d="M286.88,550.81H270.55V502.7a10.37,10.37,0,0,0-10.37-10.37H217.82v-21a11.51,11.51,0,0,0-11.43-11.58H170.84V427a2.69,2.69,0,0,1,2.66-2.71h31.86v-9.59H170.65A10.36,10.36,0,0,0,160.29,425v34.7h-6A11.42,11.42,0,0,0,143,471.31v21H109.48V483a7,7,0,0,0-7-7h-31a7,7,0,0,0-7,7v29.2a7,7,0,0,0,7,7h31a7,7,0,0,0,7-7V501.92H143V519a11.45,11.45,0,0,0,11.25,11.65h20.38V575A10.31,10.31,0,0,0,185,585.33h50.07v14.51a9.5,9.5,0,0,0,9.55,9.46h42.25a9.51,9.51,0,0,0,9.56-9.46V560.26A9.51,9.51,0,0,0,286.88,550.81ZM97,504.39a3.28,3.28,0,0,1-3.28,3.28H79.21a3.27,3.27,0,0,1-3.29-3.25V490.79a3.25,3.25,0,0,1,3.26-3.25H93.75A3.28,3.28,0,0,1,97,490.8Zm138.06,55.87v15.48H187.89a2.68,2.68,0,0,1-2.67-2.68V530.68h20.5A11.41,11.41,0,0,0,216.86,519V501.92h40.46A2.68,2.68,0,0,1,260,504.6v46.21H244.43A9.4,9.4,0,0,0,235.08,560.26Zm46,29.86a4.88,4.88,0,0,1-4.94,4.8H254.39a4.87,4.87,0,0,1-4.93-4.8V570a4.86,4.86,0,0,1,4.93-4.79h21.77A4.87,4.87,0,0,1,281.1,570Z" transform="translate(-64.42 -390.7)"/><path class="c" d="M260.55,391.74a9.46,9.46,0,0,0-4.35-1H214a9.5,9.5,0,0,0-9.55,9.45v39.58a9.5,9.5,0,0,0,9.55,9.46H256.2a9.59,9.59,0,0,0,4.35-1,9.44,9.44,0,0,0,5.21-8.42V400.15A9.43,9.43,0,0,0,260.55,391.74ZM250.42,430a4.87,4.87,0,0,1-4.93,4.8H223.7a4.87,4.87,0,0,1-4.92-4.8V409.89a4.87,4.87,0,0,1,4.92-4.81h21.79a4.87,4.87,0,0,1,4.93,4.81Z" transform="translate(-64.42 -390.7)"/><text x="-64.42" y="-390.7"/><path d="M926.77,461.74h-6.95v17.93h-4.74V461.74h-6.81v-3.42h18.5v3.42m8.78-3.42,5.93,15.42,5.72-15.42h6.14v21.36H948.6l.52-16-6.15,16h-3.2l-6.12-16,.48,16h-4.75V458.32Z" transform="translate(-64.42 -390.7)"/></svg>